#!OML:ASF F:\VICON\USERDATA\INSTALL\rory3\rory3.ASF
:FULLY-SPECIFIED
:DEGREES
2417
root -0.187647 15.3885 -2.13373 2.34613 12.6183 -3.55256
lowerback 37.0418 5.64774 -5.50717
upperback 15.5284 5.20041 -3.16156
thorax -1.25309 2.54017 -2.15719
lowerneck -9.26308 -3.95726 -10.849
upperneck -8.53922 -3.8345 12.8016
head -0.499533 -1.66507 5.58199
rclavicle -6.36111e-014 6.91771e-014
rhumerus 2.13137 -32.4334 -2.69042
rradius 52.0371
rwrist -31.792
rhand 5.3608 13.5529
rfingers 7.12502
rthumb 30.7141 -13.9026
lclavicle -6.36111e-014 6.91771e-014
lhumerus 7.54212 32.0508 0.936922
lradius 60.5834
lwrist 60.1797
lhand 5.46967 15.3409
lfingers 7.12502
lthumb 30.8179 42.7769
rfemur -25.8897 -5.08395 20.5365
rtibia 43.6708
rfoot -15.7299 -8.95962
rtoes -9.39062
lfemur -30.6998 -3.41037 -10.705
ltibia 40.6705
lfoot -6.26094 -10.6222
ltoes -4.53917
2418
root -0.191942 15.3939 -2.1187 2.27884 12.9073 -3.55712
lowerback 36.9784 5.61726 -5.56162
upperback 15.5182 5.15849 -3.14002
thorax -1.24852 2.51782 -2.08986
lowerneck -9.19195 -3.94303 -10.9154
upperneck -8.47246 -3.8184 12.8804
head -0.488948 -1.65738 5.61829
rclavicle 5.88403e-014 -1.66979e-014
rhumerus 2.48577 -32.3733 -2.99442
rradius 51.9235
rwrist -31.5984
rhand 5.59014 13.9306
rfingers 7.12502
rthumb 30.9327 -13.4837
lclavicle 5.88403e-014 -1.66979e-014
lhumerus 7.27401 31.8245 0.871286
lradius 60.6268
lwrist 60.302
lhand 5.28457 15.3301
lfingers 7.12502
lthumb 30.6414 42.7993
rfemur -25.6505 -5.20812 20.5502
rtibia 43.5752
rfoot -15.8408 -9.11469
rtoes -9.58351
lfemur -30.5721 -3.61872 -10.6853
ltibia 40.534
lfoot -6.22394 -10.6994
ltoes -4.31674
2419
root -0.19614 15.3969 -2.10554 2.22462 13.1168 -3.67789
lowerback 36.8764 5.61862 -5.55537
upperback 15.5179 5.18043 -3.03784
thorax -1.22532 2.52394 -1.9877
lowerneck -9.23173 -3.96764 -11.1719
upperneck -8.37388 -3.82925 13.0001
head -0.443448 -1.65411 5.69647
rclavicle -2.62396e-014 3.10104e-014
rhumerus 2.85011 -32.2968 -3.17015
rradius 51.8106
rwrist -31.4654
rhand 5.57709 14.0947
rfingers 7.12502
rthumb 30.9203 -13.322
lclavicle -2.62396e-014 3.10104e-014
lhumerus 7.05138 31.6486 0.953811
lradius 60.6014
lwrist 60.2932
lhand 5.21492 15.2241
lfingers 7.12502
lthumb 30.5749 42.7057
rfemur -25.4866 -5.26876 20.6966
rtibia 43.4729
rfoot -15.8481 -9.23142
rtoes -9.66869
lfemur -30.4866 -3.76662 -10.5363
ltibia 40.3979
lfoot -6.19908 -10.7107
ltoes -4.37533
2420
root -0.198257 15.405 -2.09047 2.18601 13.3344 -3.67907
lowerback 36.7646 5.62485 -5.61504
upperback 15.5049 5.1852 -2.99335
thorax -1.21032 2.52222 -1.90656
lowerneck -9.26328 -3.9725 -11.2911
upperneck -8.25459 -3.8287 13.0778
head -0.398618 -1.64901 5.73862
rclavicle -3.73715e-014 8.26944e-014
rhumerus 3.00953 -32.079 -3.33832
rradius 51.9293
rwrist -31.4628
rhand 5.41914 13.8909
rfingers 7.12502
rthumb 30.7697 -13.5542
lclavicle -3.73715e-014 8.26944e-014
lhumerus 6.83039 31.3596 0.941981
lradius 60.6885
lwrist 60.2827
lhand 5.08909 15.4329
lfingers 7.12502
lthumb 30.4549 42.9368
rfemur -25.277 -5.33156 20.6915
rtibia 43.3522
rfoot -15.903 -9.26206
rtoes -9.29674
lfemur -30.3751 -3.93944 -10.53
ltibia 40.2737
lfoot -6.2804 -10.7091
ltoes -4.69461
2421
root -0.197515 15.4151 -2.07496 2.18504 13.5459 -3.6451
lowerback 36.6344 5.61773 -5.59736
upperback 15.4518 5.19382 -3.02591
thorax -1.22348 2.53129 -1.947
lowerneck -9.21988 -3.98485 -11.16
upperneck -8.14117 -3.87065 13.0611
head -0.370331 -1.67463 5.70822
rclavicle 2.70347e-014 2.54444e-014
rhumerus 2.99876 -31.8611 -3.48247
rradius 52.0444
rwrist -31.3978
rhand 5.42074 13.7254
rfingers 7.12502
rthumb 30.7712 -13.7194
lclavicle 2.70347e-014 2.54444e-014
lhumerus 6.81057 31.0588 0.965125
lradius 60.6966
lwrist 60.2756
lhand 5.1853 15.6106
lfingers 7.12502
lthumb 30.5467 43.0975
rfemur -25.0845 -5.42544 20.6384
rtibia 43.2114
rfoot -16.0072 -9.23296
rtoes -8.72873
lfemur -30.2931 -4.12368 -10.5784
ltibia 40.1649
lfoot -6.36911 -10.6631
ltoes -4.90398
2422
root -0.196307 15.4203 -2.05897 2.16373 13.7699 -3.74215
lowerback 36.4455 5.5923 -5.43844
upperback 15.4256 5.23369 -3.02381
thorax -1.18575 2.5603 -2.02854
lowerneck -9.16789 -4.02733 -10.9653
upperneck -8.07557 -3.95639 13.0391
head -0.353584 -1.72452 5.66453
rclavicle -1.35174e-014 2.38542e-014
rhumerus 2.91488 -31.6518 -3.48394
rradius 52.0251
rwrist -31.292
rhand 5.32846 13.6825
rfingers 7.12502
rthumb 30.6832 -13.7789
lclavicle -1.35174e-014 2.38542e-014
lhumerus 6.89542 30.8751 1.16044
lradius 60.6688
lwrist 60.1937
lhand 5.34808 15.5499
lfingers 7.12502
lthumb 30.7019 43.0077
rfemur -24.9149 -5.50192 20.7455
rtibia 43.0495
rfoot -15.9537 -9.47972
rtoes -9.7117
lfemur -30.2373 -4.29754 -10.4842
ltibia 40.0663
lfoot -6.26944 -10.6918
ltoes -5.24586
2423
root -0.194504 15.4245 -2.0436 2.13195 13.9189 -3.78654
lowerback 36.2498 5.58512 -5.38577
upperback 15.4134 5.26155 -3.0257
thorax -1.1337 2.5775 -2.05515
lowerneck -9.2367 -4.04831 -10.8872
upperneck -7.94145 -3.99444 13.0711
head -0.299285 -1.74265 5.6567
rclavicle -5.56597e-015 -4.21423e-014
rhumerus 3.10725 -31.5897 -3.74713
rradius 51.9119
rwrist -30.9922
rhand 5.33084 13.7766
rfingers 7.12502
rthumb 30.6855 -13.6843
lclavicle -5.56597e-015 -4.21423e-014
lhumerus 6.71751 30.5978 1.19668
lradius 60.7956
lwrist 60.1073
lhand 5.28286 15.4082
lfingers 7.12502
lthumb 30.6397 42.8777
rfemur -24.738 -5.49382 20.7933
rtibia 42.8879
rfoot -15.8783 -9.72477
rtoes -10.1906
lfemur -30.1395 -4.44859 -10.4403
ltibia 39.9632
lfoot -6.16878 -10.665
ltoes -5.34791
2424
root -0.193613 15.4295 -2.02803 2.1143 14.0298 -3.78632
lowerback 36.0398 5.59457 -5.37566
upperback 15.3895 5.29575 -3.02963
thorax -1.09087 2.59558 -2.06387
lowerneck -9.24496 -4.07578 -11.0339
upperneck -7.86689 -4.01792 13.2602
head -0.263271 -1.7501 5.73836
rclavicle -1.35174e-014 2.78299e-014
rhumerus 3.27603 -31.4631 -4.11473
rradius 51.9722
rwrist -30.6627
rhand 5.19938 13.8382
rfingers 7.12502
rthumb 30.5601 -13.6462
lclavicle -1.35174e-014 2.78299e-014
lhumerus 6.60805 30.3875 1.2654
lradius 60.8125
lwrist 59.9691
lhand 5.21783 15.3443
lfingers 7.12502
lthumb 30.5777 42.8254
rfemur -24.5494 -5.48434 20.791
rtibia 42.7245
rfoot -15.8518 -9.82853
rtoes -10.3715
lfemur -30.0324 -4.5795 -10.4348
ltibia 39.8567
lfoot -6.22886 -10.6468
ltoes -5.21661
2425
root -0.193394 15.4368 -2.00965 2.08359 14.2027 -3.74998
lowerback 35.8141 5.6165 -5.41571
upperback 15.3848 5.33643 -2.97767
thorax -1.02848 2.61163 -1.98892
lowerneck -9.18142 -4.10854 -11.1051
upperneck -7.90491 -4.05798 13.2965
head -0.276775 -1.77069 5.76149
rclavicle 2.54444e-014 1.66979e-014
rhumerus 3.32298 -31.2915 -4.24615
rradius 52.1006
rwrist -30.5162
rhand 5.17733 13.8857
rfingers 7.12502
rthumb 30.5391 -13.6026
lclavicle 2.54444e-014 1.66979e-014
lhumerus 6.53902 30.219 1.42178
lradius 60.7632
lwrist 59.8584
lhand 5.13739 15.3769
lfingers 7.12502
lthumb 30.501 42.8723
rfemur -24.3112 -5.55024 20.7574
rtibia 42.567
rfoot -15.9091 -9.92543
rtoes -10.7651
lfemur -29.8796 -4.7648 -10.4675
ltibia 39.7207
lfoot -6.30013 -10.6162
ltoes -5.00219
